<?xml version="1.0" encoding="UTF-8"?>
<svg version="1.1" id="duo" xmlns="http://www.w3.org/2000/svg" xmlns:xlink="http://www.w3.org/1999/xlink" x="0px" y="0px" viewBox="0 0 90 78" style="enable-background:new 0 0 90 78" xml:space="preserve"><style type="text/css">.st0{fill-rule:evenodd;clip-rule:evenodd;fill:#F49000;} .st1{fill:#58CC02;} .st2{fill-rule:evenodd;clip-rule:evenodd;fill:#58CC02;} .st3{fill:#89E219;} .st4{fill-rule:evenodd;clip-rule:evenodd;fill:#89E219;} .st5{fill:#FFC200;} .st6{fill:#FFDE00;} .st7{fill-rule:evenodd;clip-rule:evenodd;fill:#FFFFFF;} .st8{fill-rule:evenodd;clip-rule:evenodd;fill:#4B4B4B;} .st9{fill:#CDF68F;} .st10{fill:#B2E762;}</style><g id="feet"><path id="left_foot" class="st0" d="M29.8,73.6c0-2.1,1.7-3.8,3.8-3.8h5.8c2.1,0,3.8,1.7,3.8,3.8s-1.7,3.8-3.8,3.8h-5.8 C31.4,77.3,29.8,75.6,29.8,73.6z"/><path id="right_foot" class="st0" d="M46.6,73.6c0-2.1,1.7-3.8,3.8-3.8h5.8c2.1,0,3.8,1.7,3.8,3.8s-1.7,3.8-3.8,3.8h-5.8 C48.3,77.3,46.6,75.6,46.6,73.6z"/></g><g id="wings"><path id="left_wing" class="st1" d="M1,49.6l30.6-32c1.6-1.7,4.4-1.3,5.5,0.7c5.2,10,3.4,22.5-4.7,30.9S12,60,1.9,55.2 C-0.1,54.2-0.6,51.4,1,49.6z"/><path id="right_wing" class="st1" d="M88.4,50.2c1.6,1.7,1.2,4.5-0.9,5.5c-10,4.9-22.4,2.6-30.4-5.8S47.1,29,52.3,19 c1.1-2.1,3.9-2.4,5.5-0.7L88.4,50.2z"/></g><path id="torso" class="st2" d="M29.2,1.8C36.7,5,41.9,6.6,44.7,6.6c2.9,0,8.1-1.6,15.8-4.8C65.6-0.4,71.3,2,73.4,7 c0.5,1.2,0.8,2.5,0.8,3.8v30c0,16.2-13.1,29.3-29.3,29.3S15.5,57,15.5,40.8V10.9c0-5.4,4.4-9.9,9.9-9.9C26.7,1,28,1.3,29.2,1.8z"/><g id="face"><g id="mask"><path class="st3" d="M43.7,22.3L57.9,6.5c0.8-0.9,2.1-0.7,2.7,0.3c2.7,4.7,2.1,10.8-1.7,15s-9.7,5.5-14.7,3.2 C43.2,24.5,42.9,23.2,43.7,22.3z"/><path class="st3" d="M46,22.3c0.8,0.9,0.5,2.2-0.6,2.7c-5,2.2-11,1-14.7-3.2s-4.4-10.3-1.7-15c0.6-1,1.9-1.1,2.7-0.3L46,22.3z"/><path id="Path-36-Copy-4" class="st4" d="M39.7,15.4c3,3.4,7.1,3.3,10.2,0c2-2.2,2.7,4.2,2.1,19.1H37.8 C37.1,19.5,37.7,13.1,39.7,15.4z"/><path id="Rectangle-130-Copy-19" class="st4" d="M29.7,10.5c6.6,0,12,5.4,12,12v9.7c0,6.6-5.4,12-12,12s-12-5.4-12-12v-9.7 C17.6,15.9,23,10.5,29.7,10.5z"/><path id="Rectangle-130-Copy-20" class="st4" d="M60.1,10.5c6.6,0,12,5.4,12,12v9.7c0,6.6-5.4,12-12,12s-12-5.4-12-12v-9.7 C48,15.9,53.4,10.5,60.1,10.5z"/></g><g id="mouth"><path id="lower_beak" class="st0" d="M44.8,31.3L44.8,31.3c2.5,0,4.5,2,4.5,4.4v0.1c0,2.4-2,4.4-4.4,4.4h-0.1 c-2.4,0-4.4-2-4.4-4.4v-0.1C40.4,33.3,42.4,31.3,44.8,31.3z"/><g id="upper_beak"><path id="beak" class="st5" d="M38.7,35.4c0.5-2.8,3-4.8,6-4.8s5.5,2,6,4.8v0.2l-6.1,1l-6-1L38.7,35.4z"/><path id="glare_2_" class="st6" d="M43.5,33.2c-0.4,0-0.7-0.2-0.8-0.6c-0.1-0.5,0.1-0.9,0.6-1.1c1.1-0.3,2.1-0.3,3.2,0 c0.5,0.1,0.7,0.6,0.6,1.1c-0.1,0.5-0.6,0.7-1.1,0.6c-0.8-0.2-1.5-0.2-2.2,0C43.7,33.2,43.6,33.2,43.5,33.2z"/></g></g><g id="left_eye"><path id="eye_ball_1_" class="st7" d="M30,15.2c4.7,0,8.4,3.8,8.4,8.4v6.9c0,4.7-3.8,8.4-8.4,8.4s-8.4-3.8-8.4-8.4v-6.9 C21.5,19,25.3,15.2,30,15.2z"/><path id="pupil_1_" class="st8" d="M31.2,19.7c2.8,0,5.1,2.3,5.1,5.1v5.5c0,2.8-2.3,5.1-5.1,5.1s-5.1-2.3-5.1-5.1v-5.5 C26.1,22,28.3,19.7,31.2,19.7z"/><ellipse id="glare_1_" class="st7" cx="27.9" cy="23" rx="2.4" ry="2.4"/></g><g id="right_eye"><path id="eye_ball" class="st7" d="M59.5,15.2c4.7,0,8.4,3.8,8.4,8.4v6.9c0,4.7-3.8,8.4-8.4,8.4S51,35.2,51,30.6v-6.9 C51,19,54.8,15.2,59.5,15.2z"/><path id="pupil" class="st8" d="M58.3,19.7c2.8,0,5.1,2.3,5.1,5.1v5.5c0,2.8-2.3,5.1-5.1,5.1s-5.1-2.3-5.1-5.1v-5.5 C53.1,22,55.4,19.7,58.3,19.7z"/><ellipse id="glare" class="st7" cx="54.6" cy="23" rx="2.4" ry="2.4"/></g></g><g id="egg_shell"><path id="shell" class="st9" d="M37.5,45.6c0.2-0.1,0.4-0.1,0.6,0l17.6,7.7l20-6.1c0.5-0.1,1,0.3,0.9,0.8 c-3.2,14.8-16.5,25.6-32,25.6S15.7,62.8,12.5,48c-0.1-0.4,0.3-0.9,0.8-0.8l13.5,2L37.5,45.6z"/><path id="spot_1_" class="st10" d="M69.3,62.4C63.5,68.9,55.2,73.1,46,73.5c-0.8-1.6-1.2-3.4-1.3-5.3c-0.1-7,5.6-12.8,12.7-12.9 C62.6,55.2,67.1,58.1,69.3,62.4z"/><path id="spot" class="st10" d="M38.9,45.9c0.3,0.9,0.5,1.9,0.5,3c0.1,5.8-4.6,10.5-10.4,10.6S18.2,55,18.1,49.3 c0-0.5,0-0.9,0.1-1.4l8.6,1.2l10.7-3.5c0.2-0.1,0.4-0.1,0.6,0L38.9,45.9z"/></g></svg>